{
  "asset": {
    "version": "2.0",
    "generator": "THREE.GLTFExporter"
  },
  "scenes": [
    {
      "nodes": [
        1,
        2
      ],
      "name": "Scene"
    }
  ],
  "scene": 0,
  "nodes": [
    {
      "matrix": [
        1,
        0,
        0,
        0,
        0,
        1,
        0,
        0,
        0,
        0,
        1,
        0,
        -21.41631974430869,
        0.9725093888770983,
        11.090707777449802,
        1
      ],
      "name": "node-0",
      "extras": {
        "name": "node-0"
      },
      "mesh": 0
    },
    {
      "matrix": [
        -0.005443558575510412,
        0.0004184469639848376,
        -0.11987573804641753,
        0,
        -0.11987646837488576,
        -0.000019001565445471156,
        0.00544352541148875,
        0,
        -6.661338147750939e-18,
        0.11999926891893484,
        0.00041887816982686397,
        0,
        0.22565331289601698,
        -3.826565616073194,
        -2.265405028812575,
        1
      ],
      "name": "razornose.gltf",
      "children": [
        0
      ]
    },
    {
      "matrix": [
        1,
        0,
        0,
        0,
        0,
        1,
        0,
        0,
        0,
        0,
        1,
        0,
        0,
        21.314428182945818,
        0,
        1
      ],
      "name": "PointLight",
      "extensions": {
        "KHR_lights_punctual": {
          "light": 0
        }
      }
    }
  ],
  "bufferViews": [
    {
      "buffer": 0,
      "byteOffset": 0,
      "byteLength": 38028,
      "target": 34962,
      "byteStride": 12
    },
    {
      "buffer": 0,
      "byteOffset": 38028,
      "byteLength": 38028,
      "target": 34962,
      "byteStride": 12
    },
    {
      "buffer": 0,
      "byteOffset": 76056,
      "byteLength": 50704,
      "target": 34962,
      "byteStride": 16
    },
    {
      "buffer": 0,
      "byteOffset": 126760,
      "byteLength": 38052,
      "target": 34963
    }
  ],
  "buffers": [
    {
      "byteLength": 164812,
      "uri": "data:application/octet-stream;base64,"
    }
  ],
  "accessors": [
    {
      "bufferView": 0,
      "componentType": 5126,
      "count": 3169,
      "max": [
        2.106494903564453,
        7.562897205352783,
        35.672489166259766
      ],
      "min": [
        -8.50483226776123,
        -7.557168006896973,
        20.347360610961914
      ],
      "type": "VEC3"
    },
    {
      "bufferView": 1,
      "componentType": 5126,
      "count": 3169,
      "max": [
        0.9997242093086243,
        0.9985524415969849,
        0.9834004640579224
      ],
      "min": [
        -0.9990084171295166,
        -0.9987988471984863,
        -0.9997144937515259
      ],
      "type": "VEC3"
    },
    {
      "bufferView": 2,
      "componentType": 5126,
      "count": 3169,
      "max": [
        0.962890625,
        0.4382323920726776,
        0.00040125849773176014,
        1
      ],
      "min": [
        0.9577071070671082,
        0.436279296875,
        0.00039935109089128673,
        1
      ],
      "type": "VEC4"
    },
    {
      "bufferView": 3,
      "componentType": 5123,
      "count": 19026,
      "max": [
        3168
      ],
      "min": [
        0
      ],
      "type": "SCALAR"
    }
  ],
  "materials": [
    {
      "pbrMetallicRoughness": {
        "metallicFactor": 0,
        "roughnessFactor": 0.9699476628648295
      },
      "doubleSided": true
    }
  ],
  "meshes": [
    {
      "primitives": [
        {
          "mode": 4,
          "attributes": {
            "POSITION": 0,
            "NORMAL": 1,
            "COLOR_0": 2
          },
          "indices": 3,
          "material": 0
        }
      ]
    }
  ],
  "extensions": {
    "KHR_lights_punctual": {
      "lights": [
        {
          "name": "PointLight",
          "color": [
            1,
            1,
            1
          ],
          "intensity": 1,
          "type": "point"
        }
      ]
    }
  },
  "extensionsUsed": [
    "KHR_lights_punctual"
  ]
}