{
  "asset": {
    "version": "2.0",
    "generator": "THREE.GLTFExporter"
  },
  "scenes": [
    {
      "nodes": [
        0,
        1,
        6
      ],
      "name": "Scene"
    }
  ],
  "scene": 0,
  "nodes": [
    {
      "matrix": [
        -0.005443558575510412,
        0.0004184469639848376,
        -0.11987573804641753,
        0,
        -0.11987646837488576,
        -0.000019001565445471156,
        0.00544352541148875,
        0,
        -6.661338147750939e-18,
        0.11999926891893484,
        0.00041887816982686397,
        0,
        0.22565331289601698,
        -3.826565616073194,
        -2.265405028812575,
        1
      ],
      "name": "razornose.gltf"
    },
    {
      "matrix": [
        1,
        0,
        0,
        0,
        0,
        1,
        0,
        0,
        0,
        0,
        1,
        0,
        0,
        21.314428182945818,
        0,
        1
      ],
      "name": "PointLight",
      "extensions": {
        "KHR_lights_punctual": {
          "light": 0
        }
      }
    },
    {
      "name": "node_MeshObject1039450688-PolyPaper21",
      "extras": {
        "name": "node_MeshObject1039450688-PolyPaper21"
      },
      "mesh": 0
    },
    {
      "name": "node_MeshObject1482543488-PolyPaper1",
      "extras": {
        "name": "node_MeshObject1482543488-PolyPaper1"
      },
      "mesh": 1
    },
    {
      "name": "node_MeshObject445103360-PolyPaper21",
      "extras": {
        "name": "node_MeshObject445103360-PolyPaper21"
      },
      "mesh": 2
    },
    {
      "name": "node_MeshObject1913244864-PolyPaper21",
      "extras": {
        "name": "node_MeshObject1913244864-PolyPaper21"
      },
      "mesh": 3
    },
    {
      "matrix": [
        1,
        0,
        0,
        0,
        0,
        1,
        0,
        0,
        0,
        0,
        1,
        0,
        0,
        -1.988412127726101,
        1.4255446594064587,
        1
      ],
      "name": "model.gltf",
      "children": [
        2,
        3,
        4,
        5
      ]
    }
  ],
  "extensions": {
    "KHR_lights_punctual": {
      "lights": [
        {
          "name": "PointLight",
          "color": [
            1,
            1,
            1
          ],
          "intensity": 1,
          "type": "point"
        }
      ]
    }
  },
  "bufferViews": [
    {
      "buffer": 0,
      "byteOffset": 0,
      "byteLength": 154688,
      "target": 34962,
      "byteStride": 16
    },
    {
      "buffer": 0,
      "byteOffset": 154688,
      "byteLength": 116016,
      "target": 34962,
      "byteStride": 12
    },
    {
      "buffer": 0,
      "byteOffset": 270704,
      "byteLength": 116016,
      "target": 34962,
      "byteStride": 12
    },
    {
      "buffer": 0,
      "byteOffset": 386720,
      "byteLength": 27108,
      "target": 34963
    },
    {
      "buffer": 0,
      "byteOffset": 413828,
      "byteLength": 130112,
      "target": 34962,
      "byteStride": 16
    },
    {
      "buffer": 0,
      "byteOffset": 543940,
      "byteLength": 97584,
      "target": 34962,
      "byteStride": 12
    },
    {
      "buffer": 0,
      "byteOffset": 641524,
      "byteLength": 97584,
      "target": 34962,
      "byteStride": 12
    },
    {
      "buffer": 0,
      "byteOffset": 739108,
      "byteLength": 21912,
      "target": 34963
    },
    {
      "buffer": 0,
      "byteOffset": 761020,
      "byteLength": 158912,
      "target": 34962,
      "byteStride": 16
    },
    {
      "buffer": 0,
      "byteOffset": 919932,
      "byteLength": 119184,
      "target": 34962,
      "byteStride": 12
    },
    {
      "buffer": 0,
      "byteOffset": 1039116,
      "byteLength": 119184,
      "target": 34962,
      "byteStride": 12
    },
    {
      "buffer": 0,
      "byteOffset": 1158300,
      "byteLength": 29952,
      "target": 34963
    },
    {
      "buffer": 0,
      "byteOffset": 1188252,
      "byteLength": 157888,
      "target": 34962,
      "byteStride": 16
    },
    {
      "buffer": 0,
      "byteOffset": 1346140,
      "byteLength": 118416,
      "target": 34962,
      "byteStride": 12
    },
    {
      "buffer": 0,
      "byteOffset": 1464556,
      "byteLength": 118416,
      "target": 34962,
      "byteStride": 12
    },
    {
      "buffer": 0,
      "byteOffset": 1582972,
      "byteLength": 28092,
      "target": 34963
    }
  ],
  "buffers": [
    {
      "byteLength": 1611064,
      "uri": "data:application/octet-stream;base64,"
    }
  ],
  "accessors": [
    {
      "bufferView": 0,
      "componentType": 5126,
      "count": 9668,
      "max": [
        1,
        1,
        1,
        1
      ],
      "min": [
        0.006584956776350737,
        0.006584956776350737,
        0.006584956776350737,
        1
      ],
      "type": "VEC4"
    },
    {
      "bufferView": 1,
      "componentType": 5126,
      "count": 9668,
      "max": [
        0.999702513217926,
        0.9986442923545837,
        0.9998193383216858
      ],
      "min": [
        -0.9991911053657532,
        -0.9984006285667419,
        -0.9990527629852295
      ],
      "type": "VEC3"
    },
    {
      "bufferView": 2,
      "componentType": 5126,
      "count": 9668,
      "max": [
        1.0781902074813843,
        3.118544340133667,
        -0.9288691878318787
      ],
      "min": [
        -0.7629462480545044,
        1.5437171459197998,
        -1.8213826417922974
      ],
      "type": "VEC3"
    },
    {
      "bufferView": 3,
      "componentType": 5123,
      "count": 13554,
      "max": [
        9667
      ],
      "min": [
        0
      ],
      "type": "SCALAR"
    },
    {
      "bufferView": 4,
      "componentType": 5126,
      "count": 8132,
      "max": [
        1,
        1,
        1,
        1
      ],
      "min": [
        0.006584956776350737,
        0.006584956776350737,
        0.006584956776350737,
        1
      ],
      "type": "VEC4"
    },
    {
      "bufferView": 5,
      "componentType": 5126,
      "count": 8132,
      "max": [
        1,
        0.9919465184211731,
        0.9998583197593689
      ],
      "min": [
        -0.9995366930961609,
        -0.9968127608299255,
        -0.999912440776825
      ],
      "type": "VEC3"
    },
    {
      "bufferView": 6,
      "componentType": 5126,
      "count": 8132,
      "max": [
        0.6866255402565002,
        3.475980758666992,
        -0.8214514851570129
      ],
      "min": [
        -1.0051982402801514,
        1.5511901378631592,
        -1.7089775800704956
      ],
      "type": "VEC3"
    },
    {
      "bufferView": 7,
      "componentType": 5123,
      "count": 10956,
      "max": [
        8131
      ],
      "min": [
        0
      ],
      "type": "SCALAR"
    },
    {
      "bufferView": 8,
      "componentType": 5126,
      "count": 9932,
      "max": [
        1,
        1,
        1,
        1
      ],
      "min": [
        0.006584956776350737,
        0.006584956776350737,
        0.006584956776350737,
        1
      ],
      "type": "VEC4"
    },
    {
      "bufferView": 9,
      "componentType": 5126,
      "count": 9932,
      "max": [
        1,
        0.9995567202568054,
        0.9999910593032837
      ],
      "min": [
        -0.9999467134475708,
        -0.9998661875724792,
        -0.9998793601989746
      ],
      "type": "VEC3"
    },
    {
      "bufferView": 10,
      "componentType": 5126,
      "count": 9932,
      "max": [
        0.8875612020492554,
        3.1898677349090576,
        -0.893032968044281
      ],
      "min": [
        -0.9352310299873352,
        1.727049708366394,
        -1.649932622909546
      ],
      "type": "VEC3"
    },
    {
      "bufferView": 11,
      "componentType": 5123,
      "count": 14976,
      "max": [
        9931
      ],
      "min": [
        0
      ],
      "type": "SCALAR"
    },
    {
      "bufferView": 12,
      "componentType": 5126,
      "count": 9868,
      "max": [
        1,
        1,
        1,
        1
      ],
      "min": [
        0.006584956776350737,
        0.006584956776350737,
        0.006584956776350737,
        1
      ],
      "type": "VEC4"
    },
    {
      "bufferView": 13,
      "componentType": 5126,
      "count": 9868,
      "max": [
        1,
        0.9991587996482849,
        0.9994329214096069
      ],
      "min": [
        -0.9989299774169922,
        -0.9999787211418152,
        -0.999979555606842
      ],
      "type": "VEC3"
    },
    {
      "bufferView": 14,
      "componentType": 5126,
      "count": 9868,
      "max": [
        0.9335774779319763,
        3.2057502269744873,
        -0.8772961497306824
      ],
      "min": [
        -0.7535814642906189,
        1.6286075115203857,
        -1.521004319190979
      ],
      "type": "VEC3"
    },
    {
      "bufferView": 15,
      "componentType": 5123,
      "count": 14046,
      "max": [
        9867
      ],
      "min": [
        0
      ],
      "type": "SCALAR"
    }
  ],
  "materials": [
    {
      "pbrMetallicRoughness": {
        "metallicFactor": 0,
        "roughnessFactor": 0.6
      },
      "name": "BlocksPaper"
    }
  ],
  "meshes": [
    {
      "primitives": [
        {
          "mode": 4,
          "attributes": {
            "COLOR_0": 0,
            "NORMAL": 1,
            "POSITION": 2
          },
          "indices": 3,
          "material": 0
        }
      ]
    },
    {
      "primitives": [
        {
          "mode": 4,
          "attributes": {
            "COLOR_0": 4,
            "NORMAL": 5,
            "POSITION": 6
          },
          "indices": 7,
          "material": 0
        }
      ]
    },
    {
      "primitives": [
        {
          "mode": 4,
          "attributes": {
            "COLOR_0": 8,
            "NORMAL": 9,
            "POSITION": 10
          },
          "indices": 11,
          "material": 0
        }
      ]
    },
    {
      "primitives": [
        {
          "mode": 4,
          "attributes": {
            "COLOR_0": 12,
            "NORMAL": 13,
            "POSITION": 14
          },
          "indices": 15,
          "material": 0
        }
      ]
    }
  ],
  "extensionsUsed": [
    "KHR_lights_punctual"
  ]
}